<svg width="40" height="40" viewBox="0 0 40 40" fill="none" xmlns="http://www.w3.org/2000/svg">
<path d="M10 6H30C31.0625 6 32 6.9375 32 8C32 9.125 31.0625 10 30 10H10C8.875 10 8 9.125 8 8C8 6.9375 8.875 6 10 6ZM21.375 14.625L29.375 22.625C30.1875 23.375 30.1875 24.6875 29.375 25.4375C28.625 26.25 27.3125 26.25 26.5625 25.4375L22 20.875V32C22 33.125 21.0625 34 20 34C18.875 34 18 33.125 18 32V20.875L13.375 25.4375C12.625 26.25 11.3125 26.25 10.5625 25.4375C9.75 24.6875 9.75 23.375 10.5625 22.625L18.5625 14.625C19.3125 13.8125 20.625 13.8125 21.375 14.625Z" fill="#fff"/>
</svg>
